<svg width="28" height="31" viewBox="0 0 28 31" fill="none" xmlns="http://www.w3.org/2000/svg">
<path d="M26.408 17.696V26H25.316V19.808L22.556 26H21.788L19.016 19.796V26H17.924V17.696H19.1L22.172 24.56L25.244 17.696H26.408Z" fill="#011C39"/>
<path d="M27.9844 16.5727C27.9844 16.5727 26.5407 14.1879 24.9358 14.1879C23.3334 14.1879 21.6498 16.6534 21.6498 16.6534C21.6498 16.6534 19.8862 14.1905 18.4425 14.1905C17.2207 14.1905 15.7822 15.8845 15.3655 16.4075L15.3655 25.827C15.3655 26.7703 15.27 27.5678 15.0778 28.2262C14.8868 28.8819 14.603 29.4153 14.2276 29.8265C13.8534 30.2376 13.3864 30.5381 12.8265 30.7229C12.2678 30.9089 11.6202 31 10.8848 31C10.2152 31 9.61659 30.8985 9.08634 30.6956C8.55609 30.49 8.1097 30.1999 7.74587 29.8213C7.38205 29.4426 7.10209 28.9873 6.90728 28.4513C6.71376 27.9178 6.61442 27.3206 6.61442 26.6623V25.7529H9.16891C9.16891 26.6064 9.16245 27.7253 9.4708 28.1598C9.77914 28.5918 10.2501 28.8103 10.8835 28.8103C11.3106 28.8103 11.9208 28.597 11.9208 28.597C11.9208 28.597 12.3878 28.2587 12.5284 28.0024C12.6678 27.7487 12.8097 27.08 12.8097 27.08C12.8097 27.08 12.8819 26.3253 12.8819 25.8934L12.8819 16.2579C12.3104 15.606 10.908 14.1476 9.78431 14.1476C8.34192 14.1476 6.33704 16.5727 6.33704 16.5727C6.33704 16.5727 4.41342 14.1476 3.12973 14.1476C1.84732 14.1476 0.0037007 16.5727 0.0037007 16.5727C0.0037007 16.5727 -0.558802 3.87972 12.1891 2.58648L14.0341 9.53674e-07L15.799 2.58648C28.9443 3.39443 27.9844 16.5727 27.9844 16.5727Z" fill="#011C39"/>
</svg>
