<svg width="81" height="31" viewBox="0 0 81 31" fill="none" xmlns="http://www.w3.org/2000/svg">
<path d="M26.408 17.696V26H25.316V19.808L22.556 26H21.788L19.016 19.796V26H17.924V17.696H19.1L22.172 24.56L25.244 17.696H26.408ZM32.4479 21.692C32.7519 21.74 33.0279 21.864 33.2759 22.064C33.5319 22.264 33.7319 22.512 33.8759 22.808C34.0279 23.104 34.1039 23.42 34.1039 23.756C34.1039 24.18 33.9959 24.564 33.7799 24.908C33.5639 25.244 33.2479 25.512 32.8319 25.712C32.4239 25.904 31.9399 26 31.3799 26H28.2599V17.636H31.2599C31.8279 17.636 32.3119 17.732 32.7119 17.924C33.1119 18.108 33.4119 18.36 33.6119 18.68C33.8119 19 33.9119 19.36 33.9119 19.76C33.9119 20.256 33.7759 20.668 33.5039 20.996C33.2399 21.316 32.8879 21.548 32.4479 21.692ZM29.3519 21.248H31.1879C31.6999 21.248 32.0959 21.128 32.3759 20.888C32.6559 20.648 32.7959 20.316 32.7959 19.892C32.7959 19.468 32.6559 19.136 32.3759 18.896C32.0959 18.656 31.6919 18.536 31.1639 18.536H29.3519V21.248ZM31.2839 25.1C31.8279 25.1 32.2519 24.972 32.5559 24.716C32.8599 24.46 33.0119 24.104 33.0119 23.648C33.0119 23.184 32.8519 22.82 32.5319 22.556C32.2119 22.284 31.7839 22.148 31.2479 22.148H29.3519V25.1H31.2839ZM36.7113 20.492C36.9033 20.116 37.1753 19.824 37.5273 19.616C37.8873 19.408 38.3233 19.304 38.8353 19.304V20.432H38.5473C37.3233 20.432 36.7113 21.096 36.7113 22.424V26H35.6193V19.424H36.7113V20.492ZM46.0959 22.46C46.0959 22.668 46.0839 22.888 46.0599 23.12H40.8039C40.8439 23.768 41.0639 24.276 41.4639 24.644C41.8719 25.004 42.3639 25.184 42.9399 25.184C43.4119 25.184 43.8039 25.076 44.1159 24.86C44.4359 24.636 44.6599 24.34 44.7879 23.972H45.9639C45.7879 24.604 45.4359 25.12 44.9079 25.52C44.3799 25.912 43.7239 26.108 42.9399 26.108C42.3159 26.108 41.7559 25.968 41.2599 25.688C40.7719 25.408 40.3879 25.012 40.1079 24.5C39.8279 23.98 39.6879 23.38 39.6879 22.7C39.6879 22.02 39.8239 21.424 40.0959 20.912C40.3679 20.4 40.7479 20.008 41.2359 19.736C41.7319 19.456 42.2999 19.316 42.9399 19.316C43.5639 19.316 44.1159 19.452 44.5959 19.724C45.0759 19.996 45.4439 20.372 45.6999 20.852C45.9639 21.324 46.0959 21.86 46.0959 22.46ZM44.9679 22.232C44.9679 21.816 44.8759 21.46 44.6919 21.164C44.5079 20.86 44.2559 20.632 43.9359 20.48C43.6239 20.32 43.2759 20.24 42.8919 20.24C42.3399 20.24 41.8679 20.416 41.4759 20.768C41.0919 21.12 40.8719 21.608 40.8159 22.232H44.9679ZM48.6293 17.12V26H47.5373V17.12H48.6293ZM51.5824 17.12V26H50.4904V17.12H51.5824ZM53.0355 22.688C53.0355 22.016 53.1715 21.428 53.4435 20.924C53.7155 20.412 54.0875 20.016 54.5595 19.736C55.0395 19.456 55.5715 19.316 56.1555 19.316C56.7315 19.316 57.2315 19.44 57.6555 19.688C58.0795 19.936 58.3955 20.248 58.6035 20.624V19.424H59.7075V26H58.6035V24.776C58.3875 25.16 58.0635 25.48 57.6315 25.736C57.2075 25.984 56.7115 26.108 56.1435 26.108C55.5595 26.108 55.0315 25.964 54.5595 25.676C54.0875 25.388 53.7155 24.984 53.4435 24.464C53.1715 23.944 53.0355 23.352 53.0355 22.688ZM58.6035 22.7C58.6035 22.204 58.5035 21.772 58.3035 21.404C58.1035 21.036 57.8315 20.756 57.4875 20.564C57.1515 20.364 56.7795 20.264 56.3715 20.264C55.9635 20.264 55.5915 20.36 55.2555 20.552C54.9195 20.744 54.6515 21.024 54.4515 21.392C54.2515 21.76 54.1515 22.192 54.1515 22.688C54.1515 23.192 54.2515 23.632 54.4515 24.008C54.6515 24.376 54.9195 24.66 55.2555 24.86C55.5915 25.052 55.9635 25.148 56.3715 25.148C56.7795 25.148 57.1515 25.052 57.4875 24.86C57.8315 24.66 58.1035 24.376 58.3035 24.008C58.5035 23.632 58.6035 23.196 58.6035 22.7ZM64.3441 21.812C64.3441 20.996 64.5281 20.264 64.8961 19.616C65.2641 18.96 65.7641 18.448 66.3961 18.08C67.0361 17.712 67.7441 17.528 68.5201 17.528C69.4321 17.528 70.2281 17.748 70.9081 18.188C71.5881 18.628 72.0841 19.252 72.3961 20.06H71.0881C70.8561 19.556 70.5201 19.168 70.0801 18.896C69.6481 18.624 69.1281 18.488 68.5201 18.488C67.9361 18.488 67.4121 18.624 66.9481 18.896C66.4841 19.168 66.1201 19.556 65.8561 20.06C65.5921 20.556 65.4601 21.14 65.4601 21.812C65.4601 22.476 65.5921 23.06 65.8561 23.564C66.1201 24.06 66.4841 24.444 66.9481 24.716C67.4121 24.988 67.9361 25.124 68.5201 25.124C69.1281 25.124 69.6481 24.992 70.0801 24.728C70.5201 24.456 70.8561 24.068 71.0881 23.564H72.3961C72.0841 24.364 71.5881 24.984 70.9081 25.424C70.2281 25.856 69.4321 26.072 68.5201 26.072C67.7441 26.072 67.0361 25.892 66.3961 25.532C65.7641 25.164 65.2641 24.656 64.8961 24.008C64.5281 23.36 64.3441 22.628 64.3441 21.812ZM76.8897 26.108C76.2737 26.108 75.7137 25.968 75.2097 25.688C74.7137 25.408 74.3217 25.012 74.0337 24.5C73.7537 23.98 73.6137 23.38 73.6137 22.7C73.6137 22.028 73.7577 21.436 74.0457 20.924C74.3417 20.404 74.7417 20.008 75.2457 19.736C75.7497 19.456 76.3137 19.316 76.9377 19.316C77.5617 19.316 78.1257 19.456 78.6297 19.736C79.1337 20.008 79.5297 20.4 79.8177 20.912C80.1137 21.424 80.2617 22.02 80.2617 22.7C80.2617 23.38 80.1097 23.98 79.8057 24.5C79.5097 25.012 79.1057 25.408 78.5937 25.688C78.0817 25.968 77.5137 26.108 76.8897 26.108ZM76.8897 25.148C77.2817 25.148 77.6497 25.056 77.9937 24.872C78.3377 24.688 78.6137 24.412 78.8217 24.044C79.0377 23.676 79.1457 23.228 79.1457 22.7C79.1457 22.172 79.0417 21.724 78.8337 21.356C78.6257 20.988 78.3537 20.716 78.0177 20.54C77.6817 20.356 77.3177 20.264 76.9257 20.264C76.5257 20.264 76.1577 20.356 75.8217 20.54C75.4937 20.716 75.2297 20.988 75.0297 21.356C74.8297 21.724 74.7297 22.172 74.7297 22.7C74.7297 23.236 74.8257 23.688 75.0177 24.056C75.2177 24.424 75.4817 24.7 75.8097 24.884C76.1377 25.06 76.4977 25.148 76.8897 25.148Z" fill="#011C39"/>
<path d="M27.9844 16.5727C27.9844 16.5727 26.5407 14.1879 24.9358 14.1879C23.3334 14.1879 21.6498 16.6534 21.6498 16.6534C21.6498 16.6534 19.8862 14.1905 18.4425 14.1905C17.2207 14.1905 15.7822 15.8845 15.3655 16.4075L15.3655 25.827C15.3655 26.7703 15.27 27.5678 15.0778 28.2262C14.8868 28.8819 14.603 29.4153 14.2276 29.8265C13.8534 30.2376 13.3864 30.5381 12.8265 30.7229C12.2678 30.9089 11.6202 31 10.8848 31C10.2152 31 9.61659 30.8985 9.08634 30.6956C8.55609 30.49 8.1097 30.1999 7.74587 29.8213C7.38205 29.4426 7.10209 28.9873 6.90728 28.4513C6.71376 27.9178 6.61442 27.3206 6.61442 26.6623V25.7529H9.16891C9.16891 26.6064 9.16245 27.7253 9.4708 28.1598C9.77914 28.5918 10.2501 28.8103 10.8835 28.8103C11.3106 28.8103 11.9208 28.597 11.9208 28.597C11.9208 28.597 12.3878 28.2587 12.5284 28.0024C12.6678 27.7487 12.8097 27.08 12.8097 27.08C12.8097 27.08 12.8819 26.3253 12.8819 25.8934L12.8819 16.2579C12.3104 15.606 10.908 14.1476 9.78431 14.1476C8.34192 14.1476 6.33704 16.5727 6.33704 16.5727C6.33704 16.5727 4.41342 14.1476 3.12973 14.1476C1.84732 14.1476 0.0037007 16.5727 0.0037007 16.5727C0.0037007 16.5727 -0.558802 3.87972 12.1891 2.58648L14.0341 9.53674e-07L15.799 2.58648C28.9443 3.39443 27.9844 16.5727 27.9844 16.5727Z" fill="#011C39"/>
</svg>
